<svg width="36" height="32" viewBox="0 0 36 32" fill="none" xmlns="http://www.w3.org/2000/svg">
<path fill-rule="evenodd" clip-rule="evenodd" d="M3.76916 27.4009C1.06897 24.9022 -0.65493 21.3892 0.236906 16.86C1.11646 12.3309 3.03524 8.63303 5.80348 5.72488C8.57789 2.81041 12.2018 0.685728 16.2909 0.137963C20.3859 -0.403617 24.9275 0.638223 28.8023 3.45951C32.6708 6.28713 35.8661 10.9006 35.9955 15.748C36.1309 20.5891 33.2063 25.6829 29.2635 28.2686C27.3006 29.5598 25.0806 30.2286 22.7142 30.6024C22.6259 29.6751 22.5229 28.7532 22.256 27.8902C21.5514 25.5699 22.4908 24.8949 24.4087 24.8949C24.9566 24.8949 25.5046 24.8528 26.0134 24.7684C29.0272 24.1777 29.6534 22.7434 28.1269 19.8747C27.5622 18.8129 26.8519 17.8509 26.1412 16.8882C24.7339 14.9822 23.3248 13.0735 23.0388 10.3827C22.9395 9.45562 21.9735 8.70938 21.1096 8.04206C20.9514 7.91985 20.7966 7.80028 20.6512 7.68273C18.9682 6.37494 18.3857 7.72391 18.6942 8.94833C19.7036 9.06256 21.597 11.4018 22.256 12.7405C22.3042 12.8384 22.3496 12.9295 22.392 13.0148C22.9296 14.0947 23.0015 14.2392 22.53 15.5295C21.6262 14.7718 21.3761 14.2493 20.9105 13.2766C20.8317 13.1119 20.7467 12.9343 20.6512 12.7405C20.042 12.1494 19.6329 11.4915 19.2218 10.8302C18.8406 10.2171 18.4575 9.60101 17.9114 9.0327C15.8762 7.97804 15.2499 8.90614 15.2499 11.0999C15.2499 12.7029 15.6805 14.1373 16.4242 15.867C12.2753 14.8967 9.02672 16.0357 6.67833 19.5372C6.29714 20.1124 5.80046 20.2252 5.30611 20.3375C5.03908 20.3982 4.77273 20.4587 4.52564 20.5919C2.80349 21.6043 1.82499 23.5028 3.27316 24.8106C4.43476 25.8649 5.16132 27.2052 5.87824 28.5276C6.00763 28.7663 6.13671 29.0044 6.26797 29.2402C5.35177 28.7156 4.52182 28.0974 3.76916 27.4009ZM17.0408 31.0905C17.6112 31.0649 18.1785 31.037 18.7414 31.0032C18.5859 29.7669 18.3534 28.5776 16.5025 28.6073C16.5414 28.4812 16.5804 28.3447 16.6194 28.208C16.6587 28.0705 16.698 27.9328 16.7373 27.8058C16.7579 27.5726 16.7812 27.3422 16.8044 27.1133C16.8692 26.4727 16.933 25.8429 16.933 25.1902C16.8547 21.52 13.2929 19.1998 10.3966 20.8872C15.2891 22.3216 15.6414 22.659 16.2285 26.4981C15.6414 27.7636 14.976 28.9448 13.7627 29.9573C16.1404 30.1734 16.7778 30.2314 17.0408 31.0905Z" fill="#EB514E"/>
</svg>
