<svg width="12" height="15" viewBox="0 0 12 15" fill="none" xmlns="http://www.w3.org/2000/svg">
<path d="M11.4606 5.55201C11.3775 5.6165 9.90999 6.44338 9.90999 8.28202C9.90999 10.4087 11.7773 11.1611 11.8332 11.1797C11.8246 11.2256 11.5365 12.2101 10.8486 13.2132C10.2353 14.096 9.59471 14.9773 8.62022 14.9773C7.64573 14.9773 7.39494 14.4113 6.26997 14.4113C5.17367 14.4113 4.78387 14.996 3.8925 14.996C3.00113 14.996 2.37917 14.1791 1.66407 13.176C0.83575 11.998 0.166504 10.1679 0.166504 8.43106C0.166504 5.64516 1.97791 4.16766 3.76066 4.16766C4.70792 4.16766 5.49755 4.78961 6.09227 4.78961C6.65834 4.78961 7.54111 4.1304 8.61878 4.1304C9.02721 4.1304 10.4947 4.16766 11.4606 5.55201ZM8.10718 2.95098C8.55286 2.42217 8.86814 1.68844 8.86814 0.954705C8.86814 0.852956 8.85954 0.749775 8.84091 0.666656C8.11577 0.693885 7.25306 1.1496 6.73286 1.75293C6.32443 2.21724 5.94323 2.95098 5.94323 3.69475C5.94323 3.80652 5.96186 3.9183 5.97046 3.95413C6.01632 3.96273 6.09084 3.97276 6.16536 3.97276C6.81597 3.97276 7.63426 3.53711 8.10718 2.95098Z" fill="white"/>
</svg>
