<svg width="14" height="15" viewBox="0 0 14 15" fill="none" xmlns="http://www.w3.org/2000/svg">
<path fill-rule="evenodd" clip-rule="evenodd" d="M9.74341 4.6281C9.04119 3.95838 8.10407 3.59352 7.13447 3.60852C5.3602 3.60852 3.85332 4.80552 3.31603 6.41735C3.03115 7.26201 3.03115 8.17667 3.31603 9.02132H3.31852C3.8583 10.6307 5.36269 11.8277 7.13697 11.8277C8.05285 11.8277 8.83913 11.5934 9.44854 11.1796V11.178C10.1657 10.7032 10.6555 9.95596 10.808 9.1113H7.13448V6.49237H13.5494C13.6293 6.94718 13.6668 7.41199 13.6668 7.87431C13.6668 9.94285 12.9276 11.6917 11.6413 12.8762L11.6426 12.8773C10.5156 13.9168 8.96872 14.5191 7.13447 14.5191C4.56302 14.5191 2.21147 13.0697 1.05694 10.7731C0.0923443 8.8514 0.0923467 6.58732 1.05695 4.66561C2.21148 2.36654 4.56302 0.917115 7.13447 0.917115C8.82378 0.897123 10.4556 1.53186 11.6851 2.68639L9.74341 4.6281Z" fill="white"/>
</svg>
