<svg width="295" height="64" viewBox="0 0 295 64" fill="none" xmlns="http://www.w3.org/2000/svg">
<path d="M141.708 60.6748C138.17 58.6952 135.406 55.8724 133.403 52.2178C131.4 48.5632 130.393 44.3347 130.393 39.509C130.393 34.683 131.423 30.5481 133.485 26.8936C135.546 23.2391 138.358 20.4396 141.919 18.4835C145.479 16.5274 149.462 15.5552 153.878 15.5552C158.294 15.5552 162.276 16.5274 165.837 18.4835C169.398 20.4396 172.209 23.2274 174.271 26.8586C176.332 30.4779 177.363 34.7063 177.363 39.5207C177.363 44.3347 176.297 48.5749 174.189 52.2295C172.069 55.884 169.199 58.7069 165.579 60.6864C161.96 62.666 157.942 63.6618 153.538 63.6618C149.134 63.6618 145.245 62.666 141.708 60.6864M161.339 54.9118C163.764 53.6117 165.732 51.6555 167.231 49.0435C168.73 46.4431 169.48 43.2689 169.48 39.5207C169.48 35.7722 168.742 32.6099 167.278 30.0095C165.802 27.4091 163.881 25.4646 161.515 24.1879C159.137 22.9111 156.572 22.2786 153.796 22.2786C151.02 22.2786 148.384 22.9111 146.041 24.1879C143.699 25.4646 141.813 27.4091 140.407 30.0095C138.99 32.6215 138.287 35.7841 138.287 39.5207C138.287 43.2572 138.978 46.5134 140.361 49.1255C141.743 51.7375 143.594 53.6703 145.913 54.9471C148.232 56.2238 150.774 56.8563 153.538 56.8563C156.302 56.8563 158.903 56.2121 161.339 54.9001" fill="#FF512C"/>
<path d="M244.819 60.6748C241.281 58.6952 238.517 55.8724 236.514 52.2178C234.511 48.5632 233.504 44.3347 233.504 39.509C233.504 34.683 234.535 30.5481 236.596 26.8936C238.658 23.2391 241.469 20.4396 245.03 18.4835C248.591 16.5274 252.573 15.5552 256.989 15.5552C261.405 15.5552 265.387 16.5274 268.948 18.4835C272.51 20.4396 275.321 23.2274 277.382 26.8586C279.443 30.4779 280.474 34.7063 280.474 39.5207C280.474 44.3347 279.408 48.5749 277.3 52.2295C275.181 55.884 272.311 58.7069 268.691 60.6864C265.071 62.666 261.054 63.6618 256.649 63.6618C252.245 63.6618 248.356 62.666 244.819 60.6864M264.451 54.9118C266.875 53.6117 268.842 51.6555 270.343 49.0435C271.842 46.4431 272.592 43.2689 272.592 39.5207C272.592 35.7722 271.853 32.6099 270.389 30.0095C268.914 27.4091 266.991 25.4646 264.626 24.1879C262.248 22.9111 259.683 22.2786 256.907 22.2786C254.131 22.2786 251.496 22.9111 249.153 24.1879C246.81 25.4646 244.924 27.4091 243.519 30.0095C242.101 32.6215 241.399 35.7841 241.399 39.5207C241.399 43.2572 242.09 46.5134 243.472 49.1255C244.854 51.7375 246.705 53.6703 249.024 54.9471C251.343 56.2238 253.885 56.8563 256.649 56.8563C259.414 56.8563 262.014 56.2121 264.451 54.9001" fill="#FF512C"/>
<path d="M228.924 0H221.123V21.0254C219.987 20.0414 218.746 19.1747 217.398 18.4367C213.838 16.4806 209.855 15.5084 205.439 15.5084C201.023 15.5084 197.041 16.4806 193.48 18.4367C189.919 20.3928 187.108 23.1923 185.046 26.8468C182.985 30.5014 181.954 34.7065 181.954 39.462C181.954 44.2177 182.961 48.5165 184.964 52.171C186.967 55.8256 189.744 58.6485 193.269 60.628C196.807 62.6075 200.742 63.6031 205.1 63.6031C209.457 63.6031 213.521 62.6075 217.141 60.628C220.76 58.6485 223.63 55.8256 225.75 52.171C227.87 48.5165 228.924 44.288 228.924 39.462C228.924 39.2981 228.924 39.1458 228.913 38.9819H228.924V0ZM218.792 48.9851C217.293 51.5971 215.325 53.5414 212.901 54.8534C210.464 56.1537 207.864 56.8095 205.1 56.8095C202.335 56.8095 199.782 56.177 197.462 54.9003C195.143 53.6236 193.293 51.6907 191.91 49.0787C190.528 46.4783 189.837 43.269 189.837 39.4739C189.837 35.6788 190.54 32.5628 191.957 29.9508C193.375 27.3504 195.249 25.4062 197.591 24.1294C199.934 22.8527 202.523 22.2201 205.345 22.2201C208.168 22.2201 210.687 22.8527 213.065 24.1294C215.443 25.4062 217.363 27.3504 218.828 29.9508C220.292 32.5628 221.03 35.7255 221.03 39.4739C221.03 43.2221 220.28 46.3847 218.781 48.9851" fill="#FF512C"/>
<path d="M125.661 42.484H88.5178C88.799 47.0756 90.3685 50.6599 93.2266 53.2369C96.0845 55.8137 99.5399 57.1023 103.616 57.1023C106.955 57.1023 109.731 56.3293 111.968 54.7714C114.205 53.2133 115.775 51.1285 116.677 48.5281H124.981C123.74 53.0025 121.257 56.6454 117.52 59.4449C113.783 62.2445 109.157 63.6501 103.616 63.6501C99.2121 63.6501 95.2647 62.6542 91.7857 60.6747C88.307 58.6952 85.5777 55.8723 83.5982 52.2177C81.6187 48.5631 80.6348 44.3347 80.6348 39.5089C80.6348 34.6829 81.5954 30.478 83.5163 26.8468C85.4372 23.2157 88.1311 20.4279 91.6102 18.4718C95.0889 16.5157 99.0832 15.5435 103.604 15.5435C108.126 15.5435 111.909 16.5039 115.306 18.4366C118.703 20.3576 121.315 23.0165 123.154 26.3782C124.993 29.7516 125.907 33.5584 125.907 37.8105C125.907 39.2864 125.825 40.8442 125.649 42.484M115.985 28.5921C114.685 26.4721 112.916 24.8555 110.679 23.7545C108.442 22.6534 105.971 22.1029 103.265 22.1029C99.3643 22.1029 96.0378 23.3445 93.2969 25.8395C90.556 28.3344 88.9862 31.7898 88.5881 36.2058H117.93C117.93 33.2656 117.274 30.7239 115.985 28.6038" fill="#FF512C"/>
<path d="M285.418 61.2956C284.317 60.1828 283.755 58.8358 283.755 57.2313C283.755 55.6265 284.307 54.2795 285.418 53.1667C286.518 52.0539 287.879 51.5033 289.47 51.5033C291.064 51.5033 292.318 52.0539 293.382 53.1667C294.461 54.2795 295 55.6265 295 57.2313C295 58.8358 294.461 60.1828 293.382 61.2956C292.305 62.4084 291.006 62.959 289.47 62.959C287.937 62.959 286.518 62.4084 285.418 61.2956Z" fill="#FF512C"/>
<path d="M23.8483 55.2867C14.8993 55.2867 7.64878 48.0128 7.64878 39.0522V23.2158H23.8483V15.5553H7.64878V0H0V39.0522C0 52.253 10.6825 62.9473 23.8483 62.9473H27.901V55.2867H23.8483Z" fill="#FF512C"/>
<path d="M76.4989 36.4519C76.4406 25.1838 67.2689 16.0592 56.0827 16.0592C51.175 16.0592 46.677 17.8161 43.1747 20.7328V3.32678H35.7603V62.9592H43.1747V35.0699C43.9244 28.1238 49.418 23.2394 56.0827 23.2394C63.2279 23.2394 69.0142 28.8499 69.0845 36.5808V62.9592H76.4989V36.4638V36.4519Z" fill="#FF512C"/>
</svg>
