<svg width="14" height="16" viewBox="0 0 14 16" fill="none" xmlns="http://www.w3.org/2000/svg">
<g clip-path="url(#clip0_36710_68)">
<path d="M6.99771 0C4.76621 0 2.94208 1.82414 2.94208 4.05563C2.94208 6.28712 4.76621 8.11125 6.99771 8.11125C9.2292 8.11125 11.0533 6.28712 11.0533 4.05563C11.0533 1.82414 9.2292 0 6.99771 0Z" fill="#A6A6A6"/>
<path d="M13.9578 11.3522C13.8515 11.0865 13.7099 10.8386 13.5505 10.6084C12.7358 9.40406 11.4784 8.60711 10.0616 8.4123C9.88451 8.3946 9.68969 8.42999 9.548 8.53626C8.80417 9.08528 7.91868 9.36864 6.99773 9.36864C6.07678 9.36864 5.19129 9.08528 4.44746 8.53626C4.30576 8.42999 4.11095 8.37687 3.93386 8.4123C2.51705 8.60711 1.24193 9.40406 0.444984 10.6084C0.285594 10.8386 0.143899 11.1043 0.0376618 11.3522C-0.0154568 11.4585 0.00223809 11.5824 0.0553567 11.6887C0.197052 11.9366 0.374136 12.1846 0.533526 12.3971C0.781458 12.7336 1.04712 13.0347 1.3482 13.318C1.59614 13.566 1.87949 13.7962 2.16288 14.0264C3.56197 15.0714 5.24444 15.6203 6.98003 15.6203C8.71563 15.6203 10.3981 15.0713 11.7972 14.0264C12.0805 13.8139 12.3639 13.566 12.6119 13.318C12.8952 13.0347 13.1786 12.7336 13.4265 12.3971C13.6036 12.1669 13.763 11.9366 13.9047 11.6887C13.9932 11.5824 14.0109 11.4584 13.9578 11.3522Z" fill="#A6A6A6"/>
</g>
<defs>
<clipPath id="clip0_36710_68">
<rect width="14" height="15.6271" fill="white"/>
</clipPath>
</defs>
</svg>
